<?xml version="1.0" standalone="no"?>
<!DOCTYPE svg PUBLIC "-//W3C//DTD SVG 20010904//EN"
 "http://www.w3.org/TR/2001/REC-SVG-20010904/DTD/svg10.dtd">
<svg version="1.0" xmlns="http://www.w3.org/2000/svg"
 width="107.000000pt" height="120.000000pt" viewBox="0 0 107.000000 120.000000"
 preserveAspectRatio="xMidYMid meet">
<metadata>
Created by potrace 1.16, written by Peter Selinger 2001-2019
</metadata>
<g transform="translate(0.000000,120.000000) scale(0.100000,-0.100000)"
fill="#000000" stroke="none">
<path d="M580 1059 c19 -6 41 -13 48 -15 17 -5 15 -25 -11 -124 l-22 -85 -55
0 c-36 0 -54 -4 -53 -11 1 -7 -5 -10 -15 -8 -23 6 -82 -32 -82 -51 0 -9 -5
-13 -10 -10 -13 8 -24 -20 -16 -41 5 -14 12 -10 34 19 15 20 37 40 50 46 37
18 40 13 4 -9 -48 -30 -99 -122 -57 -107 8 4 17 2 20 -3 4 -6 19 -10 35 -10
38 0 43 -11 26 -59 -14 -42 -5 -64 17 -42 15 15 48 13 70 -3 17 -13 17 -14 -2
-19 -10 -2 -25 0 -32 5 -11 8 -10 9 4 4 9 -3 17 -1 17 4 0 6 -7 10 -16 10 -19
0 -54 -37 -54 -57 0 -7 -5 -13 -10 -13 -6 0 -8 11 -4 26 5 19 4 25 -5 20 -6
-4 -11 -14 -11 -22 0 -8 -4 -13 -8 -10 -5 3 -7 32 -6 66 2 33 -1 60 -7 60 -5
0 -9 -11 -9 -25 0 -14 -4 -25 -10 -25 -5 0 -13 -1 -17 -2 -3 -2 -12 15 -19 37
l-14 40 4 -40 c5 -52 23 -98 36 -90 5 3 10 15 10 26 0 11 4 18 10 14 10 -6 2
-36 -14 -47 -13 -8 21 -48 41 -48 8 0 11 -4 8 -10 -4 -6 5 -10 19 -10 14 0 26
-4 26 -9 0 -19 61 -8 76 13 15 21 15 21 12 -4 -3 -23 -7 -25 -54 -25 -68 1
-124 38 -158 106 -20 40 -26 46 -36 34 -15 -18 -6 -47 27 -85 23 -28 24 -33
12 -63 -8 -17 -12 -38 -11 -45 2 -7 -3 -11 -10 -10 -7 2 -12 -5 -12 -14 1 -10
-3 -16 -9 -15 -13 2 -59 -81 -52 -93 3 -5 1 -11 -5 -15 -19 -11 -10 -23 38
-52 91 -57 213 -82 226 -48 4 13 2 14 -14 5 -11 -6 -25 -8 -30 -5 -5 3 -25 6
-44 7 -21 1 -33 5 -29 11 4 6 0 8 -10 4 -10 -3 -17 -2 -17 4 0 6 -5 7 -10 4
-6 -3 -10 -1 -10 5 0 7 -6 10 -13 7 -7 -3 -30 8 -52 24 -27 20 -33 29 -21 29
12 0 16 5 12 15 -3 8 -1 15 5 15 5 0 13 8 17 18 15 36 64 112 73 112 5 0 9 9
9 19 0 14 7 19 25 17 26 -1 34 -20 13 -30 -7 -3 2 -3 21 0 33 6 33 5 27 -21
l-7 -27 23 24 c15 14 38 24 63 27 44 3 58 9 51 20 -3 4 8 6 24 5 21 -1 31 3
35 17 11 34 52 22 46 -14 -1 -5 3 -6 8 -2 6 3 27 -12 47 -35 20 -22 41 -37 47
-33 6 3 7 1 3 -5 -8 -13 39 -47 52 -38 5 3 12 14 15 25 3 14 1 18 -10 14 -16
-6 -75 45 -67 58 3 5 -1 6 -8 4 -8 -3 -27 8 -43 25 -16 16 -35 30 -42 30 -16
0 -16 5 1 33 20 32 31 71 17 63 -6 -4 -11 -2 -11 3 0 6 6 11 13 11 8 0 7 4 -3
10 -10 6 -11 10 -2 10 13 0 17 65 6 95 -6 13 -9 14 -16 3 -7 -9 -8 -4 -4 14 5
21 3 26 -8 22 -7 -3 -16 2 -19 10 -4 9 -12 16 -18 16 -8 0 -8 -4 1 -15 21 -25
-5 -17 -30 10 -12 13 -27 22 -33 18 -6 -3 -7 -1 -4 4 4 6 0 14 -9 17 -23 9
-36 7 -29 -3 3 -5 1 -12 -4 -15 -5 -4 -8 2 -7 11 4 27 24 27 66 -1 37 -24 40
-25 56 -8 10 9 21 17 26 17 17 0 89 79 84 92 -3 8 1 10 12 7 14 -5 15 -4 2 5
-13 9 -11 11 7 11 30 0 39 18 19 38 -9 9 -16 11 -16 5 0 -6 -16 -28 -35 -49
-20 -21 -33 -45 -30 -52 4 -10 0 -12 -10 -8 -9 3 -13 2 -10 -4 14 -23 -41 -47
-57 -25 -5 6 -8 5 -8 -3 0 -15 -47 -9 -64 8 -8 8 -6 9 7 5 10 -5 17 -2 17 5 0
10 3 10 15 0 13 -11 14 -10 9 4 -4 10 -12 15 -19 12 -31 -12 -34 10 -14 94 11
46 25 92 30 101 10 19 -18 34 -81 43 l-35 5 35 -10z"/>
</g>
</svg>
